<?xml version="1.0" encoding="UTF-8"?>
<svg version="1.1" xmlns="http://www.w3.org/2000/svg" width="500" height="500">
<path d="M0 0 C11.27857864 11.85401632 18.15872442 28.77915514 19 45 C19.04125 45.68191406 19.0825 46.36382812 19.125 47.06640625 C19.50054808 59.43602113 18.08953389 70.66039476 11 81 C10.48824219 81.75023437 9.97648438 82.50046875 9.44921875 83.2734375 C5.76722052 88.39208103 1.63885021 92.71725991 -3.3125 96.625 C-4.6428125 97.800625 -4.6428125 97.800625 -6 99 C-6 99.99 -6 100.98 -6 102 C4.8768363 93.88553482 11.80416261 86.06841371 18 74 C18.55816406 72.96746094 19.11632812 71.93492187 19.69140625 70.87109375 C21.90188083 65.56803031 21.57498691 59.71708664 21.6875 54.0625 C21.72166016 52.90169922 21.75582031 51.74089844 21.79101562 50.54492188 C21.87306285 47.69671118 21.94235536 44.84879161 22 42 C24.52303331 44.22251552 25.56848189 46.00452719 26.53515625 49.2109375 C26.78628174 50.03722656 27.03740723 50.86351562 27.29614258 51.71484375 C27.6754895 53.03162109 27.6754895 53.03162109 28.0625 54.375 C28.32635498 55.27605469 28.59020996 56.17710937 28.86206055 57.10546875 C30.83332167 64.01879091 32.26401157 70.84083983 33 78 C33.10957031 78.95519531 33.21914063 79.91039062 33.33203125 80.89453125 C34.78951453 95.41106468 36.05784309 111.0413336 27.0625 123.5 C26.0661623 124.68765441 25.04728065 125.85701485 24 127 C23.21625 127.86625 22.4325 128.7325 21.625 129.625 C12.9782934 137.44821073 4.94342797 142.14910647 -7 142 C-6.99111755 143.22251465 -6.98223511 144.4450293 -6.9730835 145.70458984 C-6.89190997 157.23950359 -6.83199235 168.77435919 -6.79275131 180.30949402 C-6.7718987 186.23949104 -6.74362302 192.16925702 -6.69824219 198.09912109 C-6.65470227 203.82442488 -6.6308454 209.54950677 -6.62049103 215.27496338 C-6.61311434 217.45659883 -6.59870939 219.63822248 -6.57707977 221.81976318 C-6.5479381 224.8814088 -6.54404857 227.94214371 -6.54589844 231.00390625 C-6.53151733 231.90086716 -6.51713623 232.79782806 -6.50231934 233.7219696 C-6.54684211 240.55584914 -8.24169407 245.80357389 -12.74609375 251.0234375 C-13.30425781 251.46945312 -13.86242187 251.91546875 -14.4375 252.375 C-14.99308594 252.83648437 -15.54867187 253.29796875 -16.12109375 253.7734375 C-20.65512913 256.73328596 -24.55826618 257.25272744 -29.92536926 257.26742554 C-30.95236585 257.27422221 -30.95236585 257.27422221 -32.00010985 257.28115618 C-34.28765869 257.29378702 -36.57496904 257.29218069 -38.86254883 257.29052734 C-40.50546067 257.29651346 -42.14836969 257.30331919 -43.79127502 257.31088257 C-48.25006664 257.32854215 -52.70878148 257.33323795 -57.16760468 257.33451414 C-59.95489629 257.33593641 -62.74216842 257.34020746 -65.52945518 257.34550858 C-75.25801201 257.36400926 -84.98651405 257.37217921 -94.71508789 257.37060547 C-103.77589445 257.36940431 -112.83646272 257.39050156 -121.89720899 257.4220928 C-129.68251978 257.44826737 -137.4677528 257.45897226 -145.25310725 257.45769465 C-149.90018033 257.45718533 -154.54704165 257.4628518 -159.19407082 257.48405075 C-163.5665677 257.50345286 -167.93865126 257.50354423 -172.31116295 257.48901749 C-173.91230754 257.48693067 -175.51347813 257.49162271 -177.11457825 257.5037384 C-186.35912128 257.5691396 -193.70088484 257.57278857 -201.0234375 251.25390625 C-201.46945313 250.69574219 -201.91546875 250.13757813 -202.375 249.5625 C-202.83648437 249.00691406 -203.29796875 248.45132812 -203.7734375 247.87890625 C-206.74045932 243.33388237 -207.25383456 239.41660092 -207.27415466 234.03666687 C-207.28200968 233.00354495 -207.28200968 233.00354495 -207.29002339 231.94955188 C-207.30499117 229.64819346 -207.30572782 227.347058 -207.30639648 225.0456543 C-207.31402015 223.39288967 -207.32244801 221.74012859 -207.33161926 220.08737183 C-207.3535508 215.60172976 -207.36236136 211.11615585 -207.36744571 206.63046622 C-207.37109088 203.82642355 -207.37733179 201.02239869 -207.3844471 198.21836281 C-207.40893698 188.43145591 -207.42199248 178.64460198 -207.42553711 168.85766602 C-207.42917197 159.74228084 -207.45906491 150.62723245 -207.50094169 141.51195019 C-207.53565856 133.67993032 -207.55108579 125.84802199 -207.55178314 118.01592571 C-207.55257549 113.34085124 -207.56129438 108.66611991 -207.58978081 103.99112511 C-207.61598545 99.59230139 -207.61815348 95.19410474 -207.60212517 90.79523849 C-207.60031257 89.18441079 -207.6069844 87.57354683 -207.62294388 85.96279716 C-207.7699931 70.15267014 -207.7699931 70.15267014 -202 64 C-198.16244588 60.1002598 -194.12537358 57.31015834 -188.57646179 56.75949097 C-187.73485001 56.76393219 -186.89323822 56.76837341 -186.02612305 56.77294922 C-185.06550461 56.77310028 -184.10488617 56.77325134 -183.11515808 56.77340698 C-182.0910231 56.78372955 -181.06688812 56.79405212 -180.01171875 56.8046875 C-178.42421562 56.80893234 -178.42421562 56.80893234 -176.80464172 56.81326294 C-173.43214502 56.8244371 -170.05991613 56.84953693 -166.6875 56.875 C-164.3977903 56.88503336 -162.10807643 56.89415859 -159.81835938 56.90234375 C-154.21214857 56.9243674 -148.60609342 56.95781764 -143 57 C-142.93959534 56.39023819 -142.87919067 55.78047638 -142.81695557 55.15223694 C-142.7333075 54.34797775 -142.64965942 53.54371857 -142.56347656 52.71508789 C-142.4824469 51.91970108 -142.40141724 51.12431427 -142.31793213 50.30482483 C-140.27856529 35.52058976 -129.99303675 22.87911979 -119.125 13.375 C-103.20652089 1.73067363 -80.34552383 -3.60589484 -61 -5 C-62.77665836 -3.15227531 -64.54066871 -1.35901179 -66.56274414 0.22143555 C-71.62483134 4.19720099 -74.68126513 8.64649108 -77.875 14.1875 C-78.38603271 15.06027588 -78.89706543 15.93305176 -79.42358398 16.83227539 C-86.76868832 29.57532658 -93.70691663 42.31899498 -96 57 C-94.68 57 -93.36 57 -92 57 C-92.07154297 55.47439453 -92.07154297 55.47439453 -92.14453125 53.91796875 C-91.52001106 36.98840786 -77.27755192 16.84121743 -67 4 C-66.03126953 2.70449219 -66.03126953 2.70449219 -65.04296875 1.3828125 C-60.23360678 -4.22657717 -53.14118945 -6.80050333 -46 -8 C-45.360625 -8.11085938 -44.72125 -8.22171875 -44.0625 -8.3359375 C-28.17032309 -10.56325017 -13.16085557 -9.96053823 0 0 Z M-174 90 C-176.04461358 93.06692037 -176.32393649 93.66893707 -176.0625 97.125 C-175.51884561 99.8280293 -175.16689319 100.82118587 -173.25 102.875 C-170.98526861 104.07365696 -170.98526861 104.07365696 -168.375 104.875 C-166 106 -166 106 -164.75 108.25 C-163.29806593 113.57375824 -162.87366543 118.62563538 -162.8581543 124.13525391 C-162.85467987 124.8222084 -162.85120544 125.5091629 -162.84762573 126.2169342 C-162.84031292 127.69829131 -162.8349439 129.17965905 -162.83133507 130.66102982 C-162.82412631 133.00664256 -162.80843057 135.35205134 -162.78999329 137.69760132 C-162.73770653 144.36282699 -162.68950187 151.02793261 -162.67407227 157.69335938 C-162.66399743 161.77888442 -162.63469858 165.8638827 -162.59275246 169.94919968 C-162.58044282 171.50327957 -162.57532115 173.05743378 -162.57755089 174.61156082 C-162.57990132 176.78279351 -162.55776517 178.95250767 -162.5300293 181.12353516 C-162.52416306 182.35786285 -162.51829681 183.59219055 -162.51225281 184.86392212 C-161.90516712 188.58057913 -160.94719931 189.73480407 -158 192 C-154.74139356 193.25331017 -153.52686102 193.23279906 -150.3125 191.8125 C-147.78982198 189.83526587 -147.09674037 188.96634941 -146 186 C-145.80689416 183.44155017 -145.71956631 180.99108978 -145.72875977 178.43334961 C-145.72091965 177.29853401 -145.72091965 177.29853401 -145.71292114 176.14079285 C-145.70269636 174.50171414 -145.69690339 172.86260311 -145.69503975 171.22349358 C-145.69137526 168.6304139 -145.6746482 166.03771637 -145.65428162 163.44471741 C-145.59886544 156.07381276 -145.56813369 148.70285272 -145.54370117 141.33178711 C-145.52784764 136.82074451 -145.49765658 132.30997535 -145.45893669 127.79907417 C-145.44727163 126.07948262 -145.44135621 124.35984222 -145.44125557 122.64021111 C-145.44106402 120.23893439 -145.42283672 117.83841521 -145.40063477 115.43725586 C-145.40521194 114.72496826 -145.40978912 114.01268066 -145.414505 113.27880859 C-145.3723176 110.41620852 -145.33098985 108.46994185 -143.65464783 106.08985901 C-141.09307541 104.40264029 -139.04803449 104.12192138 -136 104 C-133.67268444 105.13779872 -131.83159286 106.16840714 -130 108 C-129.89627729 110.43761022 -129.85638163 112.847805 -129.8581543 115.28613281 C-129.85467987 116.04877945 -129.85120544 116.81142609 -129.84762573 117.59718323 C-129.84025511 119.2592419 -129.83491672 120.9213105 -129.83133507 122.58338165 C-129.82418784 125.21450342 -129.80853366 127.8454367 -129.78999329 130.47650146 C-129.73744796 137.9594053 -129.68955618 145.44220871 -129.67407227 152.92529297 C-129.66398888 157.49780488 -129.63465168 162.06984733 -129.59275246 166.64217377 C-129.58043845 168.3852254 -129.57532194 170.12834336 -129.57755089 171.87143707 C-129.57990467 174.31356318 -129.55773201 176.75434471 -129.5300293 179.19628906 C-129.53663071 179.91544998 -129.54323212 180.6346109 -129.55003357 181.37556458 C-129.46084005 186.16978846 -128.44796446 188.66714465 -125 192 C-122.10293293 193.24677006 -122.10293293 193.24677006 -119 193 C-116.25283613 191.22960551 -114.46854078 189.93708156 -113 187 C-112.89347586 184.54989772 -112.84585346 182.12702068 -112.84228516 179.67626953 C-112.83720444 178.92162415 -112.83212372 178.16697876 -112.82688904 177.38946533 C-112.81617714 175.74816174 -112.80756018 174.10684346 -112.80076981 172.46551895 C-112.78899626 169.86820043 -112.76954762 167.27104935 -112.74765015 164.67379761 C-112.68598111 157.28828494 -112.63197283 149.90278898 -112.59863281 142.51708984 C-112.57769965 138.00184333 -112.54240693 133.48690119 -112.49787521 128.97182846 C-112.48370346 127.25027929 -112.47499012 125.52867627 -112.47182083 123.80707169 C-112.46691774 121.3985632 -112.44377621 118.99086388 -112.41650391 116.58251953 C-112.41951004 115.87068512 -112.42251617 115.15885071 -112.4256134 114.42544556 C-112.37421771 111.37259246 -112.15063775 109.27067812 -110.65365601 106.58078003 C-108.22248733 104.25675201 -106.31380564 104.13255223 -103 104 C-100.25 104.625 -100.25 104.625 -98 106 C-95.72560223 110.22055042 -95.71263183 114.33195628 -95.72875977 119.01220703 C-95.72353302 119.8048143 -95.71830627 120.59742157 -95.71292114 121.41404724 C-95.7027034 123.1305761 -95.69690463 124.84713575 -95.69503975 126.563694 C-95.69136384 129.28926131 -95.67460099 132.01446871 -95.65428162 134.73995972 C-95.5990058 142.48770416 -95.56829304 150.23550233 -95.54370117 157.98339844 C-95.52773363 162.72903953 -95.497414 167.47442732 -95.45893669 172.21993637 C-95.44736173 174.01944137 -95.441357 175.81899187 -95.44125557 177.61853409 C-95.44705273 196.91640736 -95.44705273 196.91640736 -85.4765625 212.8984375 C-78.50648563 218.81310841 -70.93047549 220.17510736 -62 220 C-62 224.29 -62 228.58 -62 233 C-56.03770529 229.78519515 -50.67932651 225.97802661 -45.25 221.9375 C-44.40050781 221.31294922 -43.55101562 220.68839844 -42.67578125 220.04492188 C-37.5983818 216.30111821 -37.5983818 216.30111821 -33 212 C-46.76101159 199.750867 -46.76101159 199.750867 -62 192 C-62 196.29 -62 200.58 -62 205 C-74.02196193 202.13762811 -74.02196193 202.13762811 -77 198 C-79.48651181 189.97408628 -79.28127141 181.88645728 -79.27439499 173.56897354 C-79.27341989 170.96069552 -79.28648705 168.35281861 -79.30337524 165.74459839 C-79.34935156 158.33480891 -79.37423818 150.92506423 -79.38085938 143.51513672 C-79.38590203 138.9658231 -79.41028515 134.41693309 -79.44618607 129.86776352 C-79.45591516 128.14640737 -79.45835409 126.42499246 -79.45301437 124.7036171 C-79.42078556 113.80515489 -79.82833148 104.45935771 -85.9375 95 C-91.71691978 89.39571416 -97.41776166 88.65528508 -105.1796875 88.70703125 C-109.40519013 89.1459685 -112.40379929 90.86831541 -116 93 C-117.65697379 93.69040574 -119.31923769 94.36971413 -121 95 C-122.46484375 93.73046875 -123.9296875 92.4609375 -125.39453125 91.19140625 C-129.82420546 87.90417843 -135.77666048 88.35901578 -141 89 C-143.77179254 90.10408449 -146.24462057 91.38560693 -148.80859375 92.90625 C-151 94 -151 94 -155 94 C-157.03697617 92.37873325 -159.03814584 90.71140469 -161 89 C-165.99848118 87.33383961 -169.51847401 87.01231601 -174 90 Z M-7 122 C-7 124.64 -7 127.28 -7 130 C-4.74754119 127.31158141 -3.11786042 125.35358125 -2 122 C-3.65 122 -5.3 122 -7 122 Z " fill="#000000" transform="translate(357,93)"/>
<path d="M0 0 C11.27857864 11.85401632 18.15872442 28.77915514 19 45 C19.04125 45.68191406 19.0825 46.36382812 19.125 47.06640625 C19.50054808 59.43602113 18.08953389 70.66039476 11 81 C10.48824219 81.75023437 9.97648437 82.50046875 9.44921875 83.2734375 C-0.04078812 96.46626359 -10.76599613 101.91819901 -26.375 105.3125 C-45.22251041 108.27505777 -60.30745865 104.89825503 -75.875 93.6875 C-80.61586142 89.78887953 -83.86945915 85.24346173 -87 80 C-87.50917969 79.20207031 -88.01835937 78.40414062 -88.54296875 77.58203125 C-93.81293282 68.0606676 -93.63296151 56.49892343 -91.03125 46.14453125 C-89.58540507 42.29034577 -87.89732742 38.6455237 -86 35 C-85.38874268 33.80576416 -85.38874268 33.80576416 -84.76513672 32.58740234 C-79.56229626 22.52323534 -74.09436213 12.86400257 -67 4 C-66.35417969 3.13632813 -65.70835937 2.27265625 -65.04296875 1.3828125 C-60.23360678 -4.22657717 -53.14118945 -6.80050333 -46 -8 C-45.360625 -8.11085938 -44.72125 -8.22171875 -44.0625 -8.3359375 C-28.17032309 -10.56325017 -13.16085557 -9.96053823 0 0 Z " fill="#E25B75" transform="translate(357,93)"/>
<path d="M0 0 C-0.56847656 0.38929687 -1.13695312 0.77859375 -1.72265625 1.1796875 C-18.69188999 13.47459141 -31.64285369 40.60844461 -35 61 C-35.18369141 62.70929688 -35.18369141 62.70929688 -35.37109375 64.453125 C-36.11974146 71.21410848 -36.97068065 75.22060569 -42.1484375 79.828125 C-44 81 -44 81 -48 82 C-48.33 77.38 -48.66 72.76 -49 68 C-54.88216215 68.12254504 -57.80128009 69.87983084 -62.06640625 73.87890625 C-65.17590689 77.28993423 -67.63414414 81.04794532 -70 85 C-75.18909941 83.11305476 -76.43413515 78.96393386 -78.66796875 74.23046875 C-83.47039827 62.58352091 -82.05093985 53.52105157 -77.375 42.0703125 C-69.82892227 25.22026394 -56.30001025 14.54272357 -39.484375 7.9296875 C-9.25457906 -3.20350814 -9.25457906 -3.20350814 0 0 Z " fill="#E25B75" transform="translate(296,89)"/>
<path d="M0 0 C2.52303331 2.22251552 3.56848189 4.00452719 4.53515625 7.2109375 C4.78628174 8.03722656 5.03740723 8.86351562 5.29614258 9.71484375 C5.6754895 11.03162109 5.6754895 11.03162109 6.0625 12.375 C6.32635498 13.27605469 6.59020996 14.17710937 6.86206055 15.10546875 C8.83332167 22.01879091 10.26401157 28.84083983 11 36 C11.10957031 36.95519531 11.21914063 37.91039062 11.33203125 38.89453125 C12.78951453 53.41106468 14.05784309 69.0413336 5.0625 81.5 C4.0661623 82.68765441 3.04728065 83.85701485 2 85 C1.21625 85.86625 0.4325 86.7325 -0.375 87.625 C-10.74539578 97.00773904 -19.86965315 100.50911329 -33.91015625 100.23828125 C-37 100 -37 100 -39 99 C-37.84917275 95.54751824 -37.2524573 95.31347275 -34.3125 93.4375 C-29.24138512 89.82832815 -26.9330643 85.42616895 -24 80 C-28.95 80 -33.9 80 -39 80 C-39 75.29740469 -37.4420483 73.20886254 -34.8125 69.5625 C-34.42513672 69.00240234 -34.03777344 68.44230469 -33.63867188 67.86523438 C-29.79314689 62.417937 -25.16299734 58.0958763 -20.125 53.75 C-9.57629879 44.21709965 -1.45131484 32.9508656 -0.33984375 18.47265625 C-0.02870663 12.31615039 0.05779499 6.1635799 0 0 Z " fill="#E15C75" transform="translate(379,135)"/>
<path d="M0 0 C2.89361175 2.98504558 4.33886095 6.23310475 6 10 C6.66 10.66 7.32 11.32 8 12 C8 18.45089828 5.36483023 23.31022265 1 28 C-3.89727046 31.34951075 -9.04057628 33.52951918 -15 34 C-15.66 33.01 -16.32 32.02 -17 31 C-16.38125 30.278125 -15.7625 29.55625 -15.125 28.8125 C-12.40736132 25.21562528 -11 22.52854666 -11 18 C-17.8218683 17.61385651 -23.49577707 18.99134292 -30 21 C-30.76170685 18.74494682 -31.10826447 17.39325478 -30.46875 15.0703125 C-27.16816738 8.44252966 -22.29294431 3.10297967 -15.15234375 0.49609375 C-10.00951276 -0.68927746 -5.16449507 -1.29444285 0 0 Z " fill="#E15D76" transform="translate(289,36)"/>
<path d="M0 0 C4.78776223 4.02607278 7.76473001 7.56887681 8.375 13.875 C8.229924 18.11444318 6.88384033 21.23231935 5 25 C0.66928389 25 -0.22105226 24.48171904 -3.6875 22.1875 C-8.33375771 19.28358893 -12.74330752 17.46450289 -18 16 C-18.69867188 15.79503906 -19.39734375 15.59007813 -20.1171875 15.37890625 C-21.74101595 14.90610479 -23.3699449 14.4508663 -25 14 C-26.32957493 9.95700686 -25.51766009 7.66981108 -23.95703125 3.8359375 C-19.57727144 -4.56605071 -7.33239777 -2.96116064 0 0 Z " fill="#E05C76" transform="translate(357,67)"/>
<path d="M0 0 C4.53339647 2.99204167 6.37924712 6.8676159 8 12 C7.6 17.4 7.6 17.4 6 19 C2.79451044 19.07337315 -0.39987247 18.99611662 -3.60546875 18.9375 C-6.99090923 18.90220058 -6.99090923 18.90220058 -10.21875 19.625 C-13 20 -13 20 -16.3125 18 C-18.63672379 15.7919874 -19.06420648 14.79227314 -20.0625 11.5625 C-19.99077767 7.47432693 -19.27796642 5.37767434 -17 2 C-12.02199949 -1.318667 -5.70788976 -0.69626101 0 0 Z " fill="#DE5E76" transform="translate(350,45)"/>
<path d="M0 0 C1.914962 0.96429581 3.77960736 2.02724031 5.6328125 3.10546875 C5.25949509 7.33639945 3.70536322 9.31097766 0.91015625 12.4140625 C-1.30936297 15.3530589 -2.22759777 18.62672116 -3.3671875 22.10546875 C-9.30092434 21.54918092 -14.11693523 18.15115263 -18.4296875 14.23046875 C-19.90833616 10.87886512 -19.28440342 8.59088923 -18.3671875 5.10546875 C-14.07035104 -1.48301383 -7.28463119 -2.75277317 0 0 Z " fill="#DE5E77" transform="translate(330.3671875,35.89453125)"/>
<path d="M0 0 C0.93979465 3.34716557 0.88987852 5.35396268 0.0625 8.75 C-1.43412214 15.63648431 -1.41989373 22.04252074 0 29 C0.66 29.33 1.32 29.66 2 30 C2.5878125 29.319375 2.5878125 29.319375 3.1875 28.625 C5.34049053 26.69473263 7.24599701 25.84738554 10 25 C10.66 25.33 11.32 25.66 12 26 C13.0725 25.95875 14.145 25.9175 15.25 25.875 C19.3163518 26.01054506 21.52752657 26.96733263 25 29 C24.609375 35.0546875 24.609375 35.0546875 24 37 C21.56826782 38.89134725 20.28027451 39.02426958 17.203125 38.7578125 C16.22859375 38.54898438 15.2540625 38.34015625 14.25 38.125 C13.26515625 37.92132813 12.2803125 37.71765625 11.265625 37.5078125 C10.51796875 37.34023437 9.7703125 37.17265625 9 37 C8.67 37.66 8.34 38.32 8 39 C5.9375 40.125 5.9375 40.125 4 41 C-1.06369713 33.08151443 -3.67694286 26.56839702 -3.625 17.125 C-3.62306641 16.3414917 -3.62113281 15.5579834 -3.61914062 14.75073242 C-3.42962776 9.29472648 -2.13660269 5.01587475 0 0 Z " fill="#D15D74" transform="translate(268,135)"/>
<path d="M0 0 C-0.33 3.3 -0.66 6.6 -1 10 C-4.56192873 11.18730958 -6.0492524 10.98330427 -9.6875 9.75 C-13 8 -13 8 -15 5 C-14.875 2.4375 -14.875 2.4375 -14 0 C-9.49777973 -3.50172688 -4.7422937 -2.37114685 0 0 Z " fill="#DC617B" transform="translate(309,38)"/>
<path d="M0 0 C3.5 0.8125 3.5 0.8125 5.4375 2 C6.97273259 4.61892619 6.6980568 6.84164805 6.5 9.8125 C3.64675563 11.23912219 1.66545451 11.12283868 -1.5 10.8125 C-4.375 9.125 -4.375 9.125 -6.5 6.8125 C-7 4.1875 -7 4.1875 -6.5 1.8125 C-3.5 -0.1875 -3.5 -0.1875 0 0 Z " fill="#0D0102" transform="translate(321.5,183.1875)"/>
<path d="M0 0 C0 0.66 0 1.32 0 2 C-0.928125 2.309375 -0.928125 2.309375 -1.875 2.625 C-4.75158623 4.17244186 -4.75158623 4.17244186 -6 10 C-1.71 10.66 2.58 11.32 7 12 C7 12.66 7 13.32 7 14 C6.21496094 14.12117188 5.42992187 14.24234375 4.62109375 14.3671875 C-1.05051213 15.27186083 -6.52492254 16.2579299 -12 18 C-12.76170685 15.74494682 -13.10826447 14.39325478 -12.46875 12.0703125 C-10.12959774 7.37314385 -5.93492278 0 0 0 Z " fill="#D66379" transform="translate(271,39)"/>
<path d="M0 0 C3.5625 0.3125 3.5625 0.3125 5.5 1.4375 C7.00734863 4.097527 6.76236253 6.31456205 6.5625 9.3125 C3.70925563 10.73912219 1.72795451 10.62283868 -1.4375 10.3125 C-4.3125 8.3125 -4.3125 8.3125 -6.4375 6.3125 C-5.55427706 1.8963853 -4.77389749 0.43399068 0 0 Z " fill="#020102" transform="translate(284.4375,161.6875)"/>
<path d="M0 0 C2.97 0 5.94 0 9 0 C9 0.66 9 1.32 9 2 C5.8035914 3.06546953 3.34252724 3.07427838 0 3 C0 2.01 0 1.02 0 0 Z M-19 3 C-8.61562308 2.90223913 1.66192051 2.8444462 12 4 C12 4.33 12 4.66 12 5 C7.59154275 6.08475818 3.26469154 6.19147114 -1.25 6.1875 C-2.3790979 6.1884668 -2.3790979 6.1884668 -3.53100586 6.18945312 C-8.94203622 6.13805856 -13.78296022 5.5176843 -19 4 C-19 3.67 -19 3.34 -19 3 Z " fill="#B15264" transform="translate(318,193)"/>
<path d="M0 0 C-1.43648264 1.12629875 -2.87422585 2.2509899 -4.3125 3.375 C-5.11300781 4.00148438 -5.91351563 4.62796875 -6.73828125 5.2734375 C-8.44663212 6.57756718 -10.21172726 7.80781817 -12 9 C-12 7.35 -12 5.7 -12 4 C-15.63 4 -19.26 4 -23 4 C-23 3.67 -23 3.34 -23 3 C-19.91979223 2.29795962 -16.83548264 1.61594792 -13.75 0.9375 C-12.87730469 0.73833984 -12.00460937 0.53917969 -11.10546875 0.33398438 C-10.26113281 0.15029297 -9.41679687 -0.03339844 -8.546875 -0.22265625 C-7.77182617 -0.39547119 -6.99677734 -0.56828613 -6.19824219 -0.74633789 C-3.84824709 -1.01751125 -2.23802732 -0.71554459 0 0 Z " fill="#D46479" transform="translate(296,89)"/>
<path d="M0 0 C1.32365626 3.97096878 0.24318252 6.06325535 -1 10 C-1.165 10.70125 -1.33 11.4025 -1.5 12.125 C-2.13428785 14.50357943 -3.08622711 16.71556778 -4 19 C-5.21867683 22.5257317 -4.79663634 25.12250277 -4.0625 28.75 C-3.86785156 29.73484375 -3.67320312 30.7196875 -3.47265625 31.734375 C-3.31667969 32.48203125 -3.16070312 33.2296875 -3 34 C-3.66 34 -4.32 34 -5 34 C-8.22336425 21.23973985 -5.89237642 11.78475285 0 0 Z " fill="#D1647A" transform="translate(221,126)"/>
<path d="M0 0 C0.66 0.33 1.32 0.66 2 1 C2 2.32 2 3.64 2 5 C1.01 5 0.02 5 -1 5 C-0.896875 5.928125 -0.79375 6.85625 -0.6875 7.8125 C-0.8421875 9.3903125 -0.8421875 9.3903125 -1 11 C-3.375 12.5625 -3.375 12.5625 -6 14 C-7.34689915 16.57099402 -7.34689915 16.57099402 -8 19 C-8.99 18.67 -9.98 18.34 -11 18 C-11.33 18.99 -11.66 19.98 -12 21 C-14.0625 21.6875 -14.0625 21.6875 -16 22 C-14.7315625 20.5459375 -14.7315625 20.5459375 -13.4375 19.0625 C-5.74713098 10.17215521 -5.74713098 10.17215521 0 0 Z " fill="#D4637B" transform="translate(374,169)"/>
<path d="M0 0 C3.0625 0.125 3.0625 0.125 5.0625 1.125 C4.8125 4 4.8125 4 4.0625 7.125 C2 8.5 2 8.5 0.0625 9.125 C-0.370625 8.63 -0.80375 8.135 -1.25 7.625 C-2.93490483 5.79281808 -2.93490483 5.79281808 -5.9375 6.125 C-3.64132696 0.15495008 -3.64132696 0.15495008 0 0 Z " fill="#E15B73" transform="translate(302.9375,37.875)"/>
<path d="M0 0 C3.5625 0.3125 3.5625 0.3125 5.5 1.4375 C7.00734863 4.097527 6.76236253 6.31456205 6.5625 9.3125 C3.70925563 10.73912219 1.72795451 10.62283868 -1.4375 10.3125 C-4.3125 8.3125 -4.3125 8.3125 -6.4375 6.3125 C-5.55427706 1.8963853 -4.77389749 0.43399068 0 0 Z M-3.4375 3.3125 C-3.11708603 5.91530568 -3.11708603 5.91530568 -2.4375 8.3125 C0.84946233 9.11203138 2.27273192 9.40908936 5.5625 8.3125 C4.90664811 4.70257621 4.90664811 4.70257621 3.5625 1.3125 C-0.39207848 0.96426193 -0.39207848 0.96426193 -3.4375 3.3125 Z " fill="#290609" transform="translate(284.4375,161.6875)"/>
<path d="M0 0 C0.33 0.99 0.66 1.98 1 3 C1.66 3.33 2.32 3.66 3 4 C2.34 4 1.68 4 1 4 C1 5.98 1 7.96 1 10 C0.01 10.495 0.01 10.495 -1 11 C-1 10.01 -1 9.02 -1 8 C-1.433125 8.495 -1.86625 8.99 -2.3125 9.5 C-4 11 -4 11 -7 11 C-5.5140084 6.40693504 -3.14985318 3.56430755 0 0 Z " fill="#D86178" transform="translate(229,115)"/>
<path d="M0 0 C0.33 0 0.66 0 1 0 C2.4286661 11.73547157 3.29366149 23.17196766 3 35 C2.67 35 2.34 35 2 35 C1.9498877 34.22285645 1.89977539 33.44571289 1.84814453 32.64501953 C1.61662918 29.13764075 1.37099814 25.63139146 1.125 22.125 C1.04636719 20.90167969 0.96773438 19.67835938 0.88671875 18.41796875 C0.80292969 17.25136719 0.71914063 16.08476562 0.6328125 14.8828125 C0.55949707 13.80402832 0.48618164 12.72524414 0.41064453 11.61376953 C0.23865009 8.84612192 0.23865009 8.84612192 -2 7 C-1.34 4.69 -0.68 2.38 0 0 Z " fill="#C9677C" transform="translate(388,164)"/>
<path d="M0 0 C0.36923077 5.53846154 0.36923077 5.53846154 -1.5 7.875 C-1.995 8.24625 -2.49 8.6175 -3 9 C-3.33 7.02 -3.66 5.04 -4 3 C-5.0828125 3.495 -5.0828125 3.495 -6.1875 4 C-9.01697427 5.00603529 -11.02895466 5.16977402 -14 5 C-11.56585763 3.37723842 -9.68680554 2.38255208 -7 1.375 C-6.319375 1.11460937 -5.63875 0.85421875 -4.9375 0.5859375 C-3 0 -3 0 0 0 Z " fill="#200608" transform="translate(350,192)"/>
<path d="M0 0 C0.66 0 1.32 0 2 0 C2.53532823 1.55759343 3.05265378 3.12138045 3.5625 4.6875 C3.85253906 5.55761719 4.14257812 6.42773438 4.44140625 7.32421875 C5.05141961 10.24631074 4.77703633 12.14400553 4 15 C4.66 15 5.32 15 6 15 C6 15.66 6 16.32 6 17 C4.68 17.33 3.36 17.66 2 18 C1.96261719 17.01257813 1.92523438 16.02515625 1.88671875 15.0078125 C1.82097656 13.72648438 1.75523437 12.44515625 1.6875 11.125 C1.62949219 9.84882813 1.57148438 8.57265625 1.51171875 7.2578125 C1.34285156 6.18273437 1.17398438 5.10765625 1 4 C0.01 3.34 -0.98 2.68 -2 2 C-1.34 1.34 -0.68 0.68 0 0 Z " fill="#B15063" transform="translate(246,153)"/>
<path d="M0 0 C0.33 0.66 0.66 1.32 1 2 C0.06553465 4.03144641 -0.93224776 6.03533587 -2 8 C1.96 8 5.92 8 10 8 C10 8.33 10 8.66 10 9 C7.54159395 9.02691685 5.08348118 9.04679802 2.625 9.0625 C1.92632812 9.07087891 1.22765625 9.07925781 0.5078125 9.08789062 C-4.7734375 9.11328125 -4.7734375 9.11328125 -7 8 C-5.61918777 3.8575633 -3.40174442 2.67796901 0 0 Z " fill="#C46175" transform="translate(347,226)"/>
<path d="M0 0 C3.31012244 3.31012244 3.50351065 4.53159589 4 9 C3.34 9 2.68 9 2 9 C1.67 14.61 1.34 20.22 1 26 C0.34 25.67 -0.32 25.34 -1 25 C-0.67 16.75 -0.34 8.5 0 0 Z " fill="#DC6F85" transform="translate(379,135)"/>
<path d="M0 0 C0.33 1.32 0.66 2.64 1 4 C0.01 4.66 -0.98 5.32 -2 6 C-2.515625 6.86625 -3.03125 7.7325 -3.5625 8.625 C-4.036875 9.40875 -4.51125 10.1925 -5 11 C-5.66 11 -6.32 11 -7 11 C-7 11.99 -7 12.98 -7 14 C-7.66 14 -8.32 14 -9 14 C-9 14.99 -9 15.98 -9 17 C-9.66 17 -10.32 17 -11 17 C-9.62666848 13.17527171 -7.85872294 10.11571157 -5.5 6.8125 C-4.8915625 5.95269531 -4.283125 5.09289062 -3.65625 4.20703125 C-2 2 -2 2 0 0 Z " fill="#D0677C" transform="translate(292,95)"/>
<path d="M0 0 C0.66 0.33 1.32 0.66 2 1 C0.875 2.9375 0.875 2.9375 -1 5 C-1.886875 5.103125 -2.77375 5.20625 -3.6875 5.3125 C-8.6300149 6.33830498 -11.45255255 9.55159297 -15 13 C-15.66 12.67 -16.32 12.34 -17 12 C-11.69378564 6.93944372 -6.84394298 2.76159103 0 0 Z " fill="#CF697D" transform="translate(248,101)"/>
<path d="M0 0 C1.65 0 3.3 0 5 0 C3.515 1.98 3.515 1.98 2 4 C5.3 4.33 8.6 4.66 12 5 C8.39338934 6.80330533 5.91606575 7.46599103 2 8 C-0.1519437 4.77208445 -0.20086443 3.71599191 0 0 Z " fill="#140204" transform="translate(338,230)"/>
<path d="M0 0 C1.32 0.66 2.64 1.32 4 2 C3.67 5.3 3.34 8.6 3 12 C2.34 11.67 1.68 11.34 1 11 C1.66 8.36 2.32 5.72 3 3 C1.39592672 2.97291433 -0.2082785 2.95356517 -1.8125 2.9375 C-2.70582031 2.92589844 -3.59914063 2.91429687 -4.51953125 2.90234375 C-7.13413791 2.88990033 -7.13413791 2.88990033 -10 4 C-10 3.34 -10 2.68 -10 2 C-6.58794404 -0.09972674 -3.9699753 -0.33083127 0 0 Z " fill="#CC6C80" transform="translate(305,36)"/>
<path d="M0 0 C1.37432457 3.81756824 0.67975039 7.07255329 0 11 C0.66 11.33 1.32 11.66 2 12 C0.02 12.33 -1.96 12.66 -4 13 C-4.66 12.01 -5.32 11.02 -6 10 C-5.38125 9.278125 -4.7625 8.55625 -4.125 7.8125 C-2.16333647 5.21618062 -1.04684 3.05328334 0 0 Z " fill="#CD6A7D" transform="translate(278,57)"/>
<path d="M0 0 C0.66 0 1.32 0 2 0 C2 1.32 2 2.64 2 4 C-4.75 7 -4.75 7 -7 7 C-7 5.35 -7 3.7 -7 2 C-3.535 1.505 -3.535 1.505 0 1 C0 0.67 0 0.34 0 0 Z " fill="#D35E74" transform="translate(352,186)"/>
<path d="M0 0 C5.77807024 -0.2358396 10.51324804 0.13216954 16 2 C13 3 13 3 10 3 C10 3.99 10 4.98 10 6 C9.01 6 8.02 6 7 6 C6.6596875 5.0409375 6.6596875 5.0409375 6.3125 4.0625 C5.14749104 1.72806339 5.14749104 1.72806339 2.375 1.25 C1.59125 1.1675 0.8075 1.085 0 1 C0 0.67 0 0.34 0 0 Z " fill="#D16A7D" transform="translate(341,65)"/>
<path d="M0 0 C-0.56589844 0.19335938 -1.13179688 0.38671875 -1.71484375 0.5859375 C-2.44832031 0.84632812 -3.18179687 1.10671875 -3.9375 1.375 C-5.03384766 1.75785156 -5.03384766 1.75785156 -6.15234375 2.1484375 C-8.18682116 2.85271413 -8.18682116 2.85271413 -9 5 C-11.28515625 5.4140625 -11.28515625 5.4140625 -14.0625 5.625 C-14.98160156 5.69976562 -15.90070313 5.77453125 -16.84765625 5.8515625 C-17.91306641 5.92503906 -17.91306641 5.92503906 -19 6 C-16.44761309 3.44761309 -13.982213 2.62898015 -10.625 1.3125 C-8.91183594 0.62607422 -8.91183594 0.62607422 -7.1640625 -0.07421875 C-4.11797309 -0.96548195 -2.87781411 -1.169555 0 0 Z " fill="#CE6A7C" transform="translate(269,95)"/>
<path d="M0 0 C0.33 0 0.66 0 1 0 C1.05834353 3.22909006 1.09371115 6.45804338 1.125 9.6875 C1.14175781 10.59951172 1.15851563 11.51152344 1.17578125 12.45117188 C1.20936169 17.06848227 1.23556185 20.81932331 -1 25 C-1.66 24.01 -2.32 23.02 -3 22 C-2.67854004 21.42926758 -2.35708008 20.85853516 -2.02587891 20.27050781 C-0.95230161 17.89443242 -0.69680791 16.25885128 -0.5859375 13.671875 C-0.54726563 12.87265625 -0.50859375 12.0734375 -0.46875 11.25 C-0.4378125 10.425 -0.406875 9.6 -0.375 8.75 C-0.33632813 7.90953125 -0.29765625 7.0690625 -0.2578125 6.203125 C-0.16384164 4.13576618 -0.08084436 2.06791373 0 0 Z " fill="#D66278" transform="translate(389,184)"/>
<path d="M0 0 C0.66 0.33 1.32 0.66 2 1 C2 1.66 2 2.32 2 3 C5.3 3.33 8.6 3.66 12 4 C12 4.66 12 5.32 12 6 C2.26004228 6.57293869 2.26004228 6.57293869 -2 3 C-2 2.34 -2 1.68 -2 1 C-1.34 0.67 -0.68 0.34 0 0 Z " fill="#200306" transform="translate(338,211)"/>
<path d="M0 0 C1.32 0.33 2.64 0.66 4 1 C3.236875 1.9075 2.47375 2.815 1.6875 3.75 C-0.28483107 6.114556 -2.18262034 8.51305942 -4 11 C-4.6875 8.75 -4.6875 8.75 -5 6 C-3.6875 3.6875 -3.6875 3.6875 -2 2 C-1.34 2 -0.68 2 0 2 C0 1.34 0 0.68 0 0 Z " fill="#CB5C73" transform="translate(231,161)"/>
<path d="M0 0 C-2.64 1.65 -5.28 3.3 -8 5 C-8 4.01 -8 3.02 -8 2 C-9.98 2 -11.96 2 -14 2 C-9.24938674 -0.74073842 -5.31937084 -1.32984271 0 0 Z " fill="#CE6A80" transform="translate(296,89)"/>
<path d="M0 0 C0.66 0 1.32 0 2 0 C2 0.99 2 1.98 2 3 C2.66 3 3.32 3 4 3 C4 4.32 4 5.64 4 7 C4.99 7.33 5.98 7.66 7 8 C7 8.99 7 9.98 7 11 C7.99 11.33 8.98 11.66 10 12 C8.68 12 7.36 12 6 12 C4.55078125 10.390625 4.55078125 10.390625 3.3125 8.25 C2.89613281 7.55390625 2.47976562 6.8578125 2.05078125 6.140625 C1.0435891 4.08879861 0.45747551 2.23207832 0 0 Z " fill="#BC5A6F" transform="translate(217,161)"/>
<path d="M0 0 C0.33 0 0.66 0 1 0 C1.1875 2.3125 1.1875 2.3125 1 5 C-0.4375 6.625 -0.4375 6.625 -2 8 C-2.33 8.99 -2.66 9.98 -3 11 C-3.66 11 -4.32 11 -5 11 C-5 11.99 -5 12.98 -5 14 C-5.66 14 -6.32 14 -7 14 C-5.23570801 9.02790438 -2.6060834 4.56561939 0 0 Z " fill="#D5637E" transform="translate(280,112)"/>
<path d="M0 0 C0.33 1.32 0.66 2.64 1 4 C0.01 4.33 -0.98 4.66 -2 5 C-2 7.97 -2 10.94 -2 14 C-2.66 14 -3.32 14 -4 14 C-5.07817935 10.77269804 -4.94858069 9.01873669 -3.6875 5.875 C-3.42324219 5.19179687 -3.15898437 4.50859375 -2.88671875 3.8046875 C-2 2 -2 2 0 0 Z " fill="#CC677C" transform="translate(336,67)"/>
<path d="M0 0 C6.34507042 0.59859155 6.34507042 0.59859155 8.9375 2.1875 C10.47273259 4.80642619 10.1980568 7.02914805 10 10 C9.67 9.01 9.34 8.02 9 7 C8.34 7 7.68 7 7 7 C6.938125 6.071875 6.938125 6.071875 6.875 5.125 C6.58625 4.42375 6.2975 3.7225 6 3 C3.00384054 1.6954344 3.00384054 1.6954344 0 1 C0 0.67 0 0.34 0 0 Z " fill="#390F14" transform="translate(318,183)"/>
<path d="M0 0 C0.66 1.32 1.32 2.64 2 4 C1.2575 4.433125 0.515 4.86625 -0.25 5.3125 C-2.61833926 6.76579909 -4.80924065 8.29607606 -7 10 C-5.6062718 5.56541027 -3.39417765 3.12621626 0 0 Z " fill="#1B0405" transform="translate(236,160)"/>
<path d="M0 0 C2.26171875 -0.171875 2.26171875 -0.171875 4.6875 0.25 C5.49574219 0.37890625 6.30398438 0.5078125 7.13671875 0.640625 C8.05904297 0.81851563 8.05904297 0.81851563 9 1 C9 1.66 9 2.32 9 3 C3.06 3.495 3.06 3.495 -3 4 C-2.01 2.68 -1.02 1.36 0 0 Z " fill="#D1647B" transform="translate(269,50)"/>
<path d="M0 0 C1 3 1 3 -0.125 6.625 C-1.053125 8.295625 -1.053125 8.295625 -2 10 C-3.65 10.33 -5.3 10.66 -7 11 C-4.69 7.37 -2.38 3.74 0 0 Z " fill="#C65A71" transform="translate(349,198)"/>
<path d="M0 0 C0.33 0.99 0.66 1.98 1 3 C-0.4375 5.1875 -0.4375 5.1875 -2 7 C-2 6.34 -2 5.68 -2 5 C-3.65 5.66 -5.3 6.32 -7 7 C-5.54744301 3.17053157 -3.57104439 1.87949705 0 0 Z " fill="#C2586D" transform="translate(357,191)"/>
<path d="M0 0 C0.33 1.65 0.66 3.3 1 5 C0.67 4.01 0.34 3.02 0 2 C-3.3 2.66 -6.6 3.32 -10 4 C-6.2751896 0.2751896 -5.07777425 -0.13362564 0 0 Z " fill="#27080A" transform="translate(247,156)"/>
<path d="M0 0 C0.95465783 2.16967689 1.14401212 3.56328793 0.3984375 5.82421875 C-0.35870385 7.5684743 -1.17609198 9.28627131 -2 11 C-2.66 10.67 -3.32 10.34 -4 10 C-4 8.68 -4 7.36 -4 6 C-3.01 6 -2.02 6 -1 6 C-1.020625 5.195625 -1.04125 4.39125 -1.0625 3.5625 C-1 1 -1 1 0 0 Z " fill="#D7627A" transform="translate(262,137)"/>
<path d="M0 0 C0.33 0.66 0.66 1.32 1 2 C1.66 2.33 2.32 2.66 3 3 C2.484375 3.556875 1.96875 4.11375 1.4375 4.6875 C-0.29476698 6.94085007 -0.29476698 6.94085007 0.3125 9.75 C0.539375 10.4925 0.76625 11.235 1 12 C-0.5625 10.9375 -0.5625 10.9375 -2 9 C-1.76811536 5.69564394 -1.48929359 2.97858719 0 0 Z " fill="#D06B80" transform="translate(313,39)"/>
<path d="M0 0 C-1.29096781 0.81360995 -2.58279875 1.62585046 -3.875 2.4375 C-4.59429687 2.88996094 -5.31359375 3.34242187 -6.0546875 3.80859375 C-8 5 -8 5 -10 6 C-10.33 5.01 -10.66 4.02 -11 3 C-4.03571429 -1.41964286 -4.03571429 -1.41964286 0 0 Z " fill="#D6687D" transform="translate(307,88)"/>
<path d="M0 0 C1.60379341 -0.05416188 3.20811406 -0.09286638 4.8125 -0.125 C5.70582031 -0.14820312 6.59914063 -0.17140625 7.51953125 -0.1953125 C10 0 10 0 13 2 C13 2.66 13 3.32 13 4 C8.71 3.01 4.42 2.02 0 1 C0 0.67 0 0.34 0 0 Z " fill="#CC687C" transform="translate(334,81)"/>
<path d="M0 0 C0.66 0 1.32 0 2 0 C1.29445932 3.66881155 -0.27735506 6.70450534 -2 10 C-2.66 9.01 -3.32 8.02 -4 7 C-3.34 7 -2.68 7 -2 7 C-1.855625 6.030625 -1.71125 5.06125 -1.5625 4.0625 C-1 1 -1 1 0 0 Z " fill="#D2647D" transform="translate(371,163)"/>
<path d="M0 0 C2.3125 -0.3125 2.3125 -0.3125 5 0 C6.81883009 2.3832946 8 3.95818337 8 7 C7.01 6.67 6.02 6.34 5 6 C5 5.01 5 4.02 5 3 C4.34 3 3.68 3 3 3 C3 2.34 3 1.68 3 1 C2.01 0.67 1.02 0.34 0 0 Z " fill="#D2677D" transform="translate(284,36)"/>
<path d="M0 0 C2.97 0.33 5.94 0.66 9 1 C5.71299843 2.64350079 3.52069985 3.41321669 0 4 C0 2.68 0 1.36 0 0 Z " fill="#260306" transform="translate(341,234)"/>
<path d="M0 0 C-1.29299694 2.88437779 -2.65941363 4.87219421 -5 7 C-5.1875 4.625 -5.1875 4.625 -5 2 C-2 0 -2 0 0 0 Z " fill="#D6667D" transform="translate(383,216)"/>
</svg>
